# xmcd
#
# Track frame offsets: 
#        150
#        10538
#        23020
#        33068
#        45132
#        54067
#        67196
#        77335
#        86952
#        98261
#        111323
#        120871
#        135859
#        147478
#        160926
#        179121
#        189847
#        202979
#        214003
#        224925
#        233800
#        244676
#        254169
#        268403
#        279820
#        292059
#        300746
#        306708
#        314837
#        323424
#        331818
#        341494
#        353482
#        360724
#        367191
#        375941
#
# Disc length: 5092 seconds
#
# Revision: 0
# Processed by: cddbd v1.5.2PL0 Copyright (c) Steve Scherf et al.
# Submitted via: ExactAudioCopy v0.99pb4
#
DISCID=1013e224
DTITLE=Red Simpson - Hello, I'm Red Simpson - Disc 5
DYEAR=2012
DGENRE=Country
TTITLE0=Just Call Me Texas
TTITLE1=Trophies
TTITLE2=Buffalo Beauty
TTITLE3=Don't Touch My Hat
TTITLE4=Lady Lookin' For Love
TTITLE5=Me And Ole CB
TTITLE6=Looking At The World Through A Windshield
TTITLE7=I'll Have Another Cup Of Coffee (Then I'll Go)
TTITLE8=Movin' On
TTITLE9=Wheels Hummin' Home Sweet Home
TTITLE10=Truck Drivin' Son Of A Gun
TTITLE11=Drivin' My Life Away
TTITLE12=Dear Mr. President
TTITLE13=Ronnie, Baby
TTITLE14=Lucky Ole Colorado
TTITLE15=Time Changes Everything
TTITLE16=The Flying Saucer Man And The Truck Driver
TTITLE17=Lady Of The Road
TTITLE18=A Little Bit Of Her
TTITLE19=You Put The World Back Together
TTITLE20=Living For You
TTITLE21=World Full Of Love
TTITLE22=You're A Better Man Than Me
TTITLE23=Poco
TTITLE24=The Lonely G.I.
TTITLE25=Ship Of Love
TTITLE26=I Ain't Found Me One
TTITLE27=Play The Guitar Softly
TTITLE28=Honky Tonks And Heartaches
TTITLE29=Walkin' Out Backwards
TTITLE30=If I Have To Live Without You
TTITLE31=I'm Gettin' Over A Heartache
TTITLE32=Here Again, Gone Again
TTITLE33=I Don't Think I Will
TTITLE34=Here Today Gone Tomorrow Daddy
TTITLE35=She Belongs To You
EXTD=
EXTT0=
EXTT1=
EXTT2=
EXTT3=
EXTT4=
EXTT5=
EXTT6=
EXTT7=
EXTT8=
EXTT9=
EXTT10=
EXTT11=
EXTT12=
EXTT13=
EXTT14=
EXTT15=
EXTT16=
EXTT17=
EXTT18=
EXTT19=
EXTT20=
EXTT21=
EXTT22=
EXTT23=
EXTT24=
EXTT25=
EXTT26=
EXTT27=
EXTT28=
EXTT29=
EXTT30=
EXTT31=
EXTT32=
EXTT33=
EXTT34=
EXTT35=
PLAYORDER=
